# xmcd CD database file
#
# Track frame offsets:
#	150
#	11907
#	23926
#	34748
#	50096
#	63325
#	74994
#	85501
#	96137
#	106354
#	115922
#	128125
#	140646
#	154085
#	164770
#	176623
#	186209
#	194947
#	207658
#	218533
#	227508
#	241935
#	251060
#	262512
#	274878
#	283833
#	294753
#	309031
#	320835
#
# Disc length: 4418 seconds
#
# Revision: 2
# Processed by: cddbd v1.5.1PL0 Copyright (c) Steve Scherf et al.
# Submitted via: CDex 1.40Beta9
#
DISCID=b911401d
DTITLE=Johnny Horton - The World Of Johnny Horton
DYEAR=1900
DGENRE=Country
TTITLE0=The Battle Of New Orleans
TTITLE1=When It's Springtime In Alaska (it's Forty Below)
TTITLE2=Johnny Reb
TTITLE3=Sink The Bismark
TTITLE4=North To Alaska
TTITLE5=The Battle Of Bull Run
TTITLE6=The Sinking Of The Rueben James
TTITLE7=I'm Ready, If You're Willing
TTITLE8=Honky Tonk Man
TTITLE9=I'm Coming Home
TTITLE10=Rock Island Line
TTITLE11=All For The Love Of A Girl
TTITLE12=Whispering Pines
TTITLE13=The First Train Heading South
TTITLE14=Lost Highway
TTITLE15=The Golden Rocket
TTITLE16=Got The Bull By The Horns
TTITLE17=Johnny Freedom (Freedomland)
TTITLE18=John Paul Jones
TTITLE19=Young Abe Lincoln (Makes A Tall, Tall Man)
TTITLE20=Comanche (The Brave Horse)
TTITLE21=I'm A One Woman Man
TTITLE22=Jim Bridger
TTITLE23=Sleepy-Eyed John
TTITLE24=The Wild One
TTITLE25=The Electrified Donkey
TTITLE26=The Mansion You Stole
TTITLE27=Take Me Like I Am
TTITLE28=Honky Tonk Hardwood Floor
EXTD=ID3G: 2
EXTT0=
EXTT1=
EXTT2=
EXTT3=
EXTT4=
EXTT5=
EXTT6=
EXTT7=
EXTT8=
EXTT9=
EXTT10=
EXTT11=
EXTT12=
EXTT13=
EXTT14=
EXTT15=
EXTT16=
EXTT17=
EXTT18=
EXTT19=
EXTT20=
EXTT21=
EXTT22=
EXTT23=
EXTT24=
EXTT25=
EXTT26=
EXTT27=
EXTT28=
PLAYORDER=
